# xmcd
#
# Track frame offsets:
#	150
#	16622
#	44173
#	55366
#	71221
#	94097
#	113409
#	132848
#	147398
#	171713
#	189707
#	203437
#	223433
#
# Disc length: 3158 seconds
# Revision: 0
# Processed by: cddbd v1.5.2PL0 Copyright (c) Steve Scherf et al.
# Submitted via: dBpowerAMP V12.0
#
DISCID=cc0c540d
DTITLE=Moondogs Gypsy Blues Band - Dirty Girl
DYEAR=2011
DGENRE=Blues
TTITLE0=Shy Bo Blues
TTITLE1=You Shook Me
TTITLE2=Leather and Chrome
TTITLE3=Seven Days
TTITLE4=Dirty Girl
TTITLE5=Bluesman
TTITLE6=Willy and Jenny
TTITLE7=JUst Got Back
TTITLE8=Crowsline
TTITLE9=One Hand
TTITLE10=Saucepanful
TTITLE11=Some Poor Fools
TTITLE12=Lost Days
EXTD=
EXTT0=
EXTT1=
EXTT2=
EXTT3=
EXTT4=
EXTT5=
EXTT6=
EXTT7=
EXTT8=
EXTT9=
EXTT10=
EXTT11=
EXTT12=
PLAYORDER=
